<?xml version="1.0" encoding="UTF-8"?>
<svg viewBox="0 0 108 100.31233" xmlns="http://www.w3.org/2000/svg" xmlns:xlink="http://www.w3.org/1999/xlink">
 <g transform="translate(-118 -452.05)">
  <path d="m154 452.05-18 31.188 22 12.687 14-24.25 4.875 8.625-5.8125 3.375 22.375-0.24999 7.4375-12.562 3.9375-6.6876-5.875 3.375-8.9375-15.5h-36zm54 31.188-22.187 12.812 13.5 23.75-9.1875 0.0626v-6.5l-3.625 6.5-7.375 13v0.0624l7.1875 12.688 3.8125 6.75v-6.75h17.875l18-31.188-18-31.187zm-86.937 12.25 5.9375 3.4374-9 15.5 18 31.188h36v-25.625l-28 0.1874 4.9375-8.5624 5.875 3.375-11.375-19.25-22.375-0.25z" fill="#3d8c40"/>
 </g>
</svg>
